<?xml version="1.0" encoding="UTF-8" standalone="no"?>
<svg
   xmlns:dc="http://purl.org/dc/elements/1.1/"
   xmlns:cc="http://creativecommons.org/ns#"
   xmlns:rdf="http://www.w3.org/1999/02/22-rdf-syntax-ns#"
   xmlns:svg="http://www.w3.org/2000/svg"
   xmlns="http://www.w3.org/2000/svg"
   xmlns:xlink="http://www.w3.org/1999/xlink"
   version="1.1"
   id="svg2"
   viewBox="0 0 144.63755 75.476743"
   height="21.301214mm"
   width="40.819931mm">
  <defs
     id="defs4">
    <linearGradient
       id="linearGradient4773">
      <stop
         style="stop-color:#00558c;stop-opacity:1"
         offset="0"
         id="stop4761" />
      <stop
         style="stop-color:#003050;stop-opacity:1"
         offset="1"
         id="stop4763" />
    </linearGradient>
    <linearGradient
       id="linearGradient4765">
      <stop
         id="stop4259"
         offset="0"
         style="stop-color:#000000;stop-opacity:1" />
      <stop
         id="stop4261"
         offset="1"
         style="stop-color:#000000;stop-opacity:0.08424908" />
    </linearGradient>
    <linearGradient
       id="linearGradient4247">
      <stop
         id="stop4249"
         offset="0"
         style="stop-color:#ffffff;stop-opacity:1" />
      <stop
         style="stop-color:#ffffff;stop-opacity:1"
         offset="0.33969364"
         id="stop4255" />
      <stop
         id="stop4251"
         offset="1"
         style="stop-color:#979797;stop-opacity:1" />
    </linearGradient>
    <filter
       height="1.1496286"
       y="-0.074814275"
       width="1.1479806"
       x="-0.073990285"
       id="filter4544"
       style="color-interpolation-filters:sRGB">
      <feGaussianBlur
         id="feGaussianBlur4546"
         stdDeviation="0.54048856" />
    </filter>
    <linearGradient
       gradientTransform="translate(320,-270)"
       y2="725.98352"
       x2="134.16917"
       y1="697.27112"
       x1="134.16917"
       gradientUnits="userSpaceOnUse"
       id="linearGradient5152"
       xlink:href="#linearGradient4773" />
    <linearGradient
       gradientTransform="translate(320,-270)"
       y2="725.62006"
       x2="144.37486"
       y1="696.46393"
       x1="144.37486"
       gradientUnits="userSpaceOnUse"
       id="linearGradient5154"
       xlink:href="#linearGradient4773" />
    <radialGradient
       r="15.153754"
       fy="731.2464"
       fx="132.14957"
       cy="731.2464"
       cx="132.14957"
       gradientTransform="matrix(1.2116322,-2.4612983e-6,3.324218e-7,1.2507522,291.70989,-454.17836)"
       gradientUnits="userSpaceOnUse"
       id="radialGradient5156"
       xlink:href="#linearGradient4247" />
    <radialGradient
       r="5.9791799"
       fy="723.77802"
       fx="128.55017"
       cy="723.77802"
       cx="128.55017"
       gradientTransform="matrix(1.5132055,0,2.5237284e-7,1.7290274,253.3829,-798.70979)"
       gradientUnits="userSpaceOnUse"
       id="radialGradient5158"
       xlink:href="#linearGradient4773" />
    <radialGradient
       r="32.023415"
       fy="725.98444"
       fx="131.23236"
       cy="725.98444"
       cx="131.23236"
       gradientTransform="matrix(1.1020862,0.17046161,-0.17960316,1.1611891,436.95983,-409.17849)"
       gradientUnits="userSpaceOnUse"
       id="radialGradient5160"
       xlink:href="#linearGradient4765" />
    <linearGradient
       y2="725.98352"
       x2="134.16917"
       y1="697.27112"
       x1="134.16917"
       gradientTransform="matrix(0.70857842,0,0,0.70857842,387.7438,-58.43273)"
       gradientUnits="userSpaceOnUse"
       id="linearGradient5162"
       xlink:href="#linearGradient4773" />
    <radialGradient
       r="15.153754"
       fy="731.2464"
       fx="132.14957"
       cy="731.2464"
       cx="132.14957"
       gradientTransform="matrix(0.69466079,-1.4111275e-6,1.9058621e-7,0.71708932,389.04165,-65.83636)"
       gradientUnits="userSpaceOnUse"
       id="radialGradient5164"
       xlink:href="#linearGradient4247" />
    <radialGradient
       r="15.153754"
       fy="723.70764"
       fx="129.19771"
       cy="723.70764"
       cx="129.19771"
       gradientTransform="matrix(0.30900063,-6.2770102e-7,8.4777002e-8,0.31897734,439.27107,223.86639)"
       gradientUnits="userSpaceOnUse"
       id="radialGradient5166"
       xlink:href="#linearGradient4773" />
    <filter
       height="1.1085136"
       y="-0.054256801"
       width="1.0392053"
       x="-0.019602625"
       id="filter5265"
       style="color-interpolation-filters:sRGB">
      <feGaussianBlur
         id="feGaussianBlur5267"
         stdDeviation="1.1367964" />
    </filter>
  </defs>
  <metadata
     id="metadata7">
    <rdf:RDF>
      <cc:Work
         rdf:about="">
        <dc:format>image/svg+xml</dc:format>
        <dc:type
           rdf:resource="http://purl.org/dc/dcmitype/StillImage" />
        <dc:title></dc:title>
      </cc:Work>
    </rdf:RDF>
  </metadata>
  <g
     transform="translate(-412.75288,-417.98612)"
     id="layer1">
    <path
       id="path5168"
       d="m 496.10547,426.98242 0,44.12891 6.49805,0 0,-44.12891 -6.49805,0 z m 9.62305,0 0,44.12891 6.5,0 0,-44.12891 -6.5,0 z m -90.2461,5.94727 0,25.89648 c -0.0431,4.31063 1.04565,7.5012 3.26563,9.57031 1.16386,1.03455 2.4137,1.74486 3.75,2.13282 1.33629,0.38795 3.14701,0.58203 5.43164,0.58203 l 0,-6.27149 c -2.28463,-0.0215 -3.84889,-0.44269 -4.68946,-1.26172 -0.84057,-0.84055 -1.25976,-2.36987 -1.25976,-4.58984 l 0,-9.89258 5.94922,0 0,-6.24023 -5.94922,0 0,-9.92578 -6.49805,0 z m 126.73242,0 0,25.89648 c -0.0431,4.31063 1.04566,7.5012 3.26563,9.57031 1.16387,1.03455 2.4137,1.74486 3.75,2.13282 1.33629,0.38795 3.14701,0.58203 5.43164,0.58203 l 0,-6.27149 c -2.28463,-0.0215 -3.84693,-0.44269 -4.6875,-1.26172 -0.84057,-0.84055 -1.26172,-2.36987 -1.26172,-4.58984 l 0,-9.89258 5.94922,0 0,-6.24023 -5.94922,0 0,-9.92578 -6.49805,0 z m -9.80273,0.0996 0,6.5332 6.49805,0 0,-6.5332 -6.49805,0 z m -82.80469,3.66992 c -4.93941,0.0301 -9.20109,1.50623 -12.78515,4.42773 -5.21045,4.18641 -7.81641,9.50193 -7.81641,15.94727 0,5.36103 1.89652,10.01351 5.69141,13.95898 4.0057,4.15634 8.91571,6.23438 14.72851,6.23438 3.313,0 6.4745,-0.76673 9.48633,-2.30274 3.46359,-1.74681 6.17512,-4.18807 8.13281,-7.32031 0.37144,-0.59657 0.69601,-1.20316 0.99805,-1.81445 0.30244,0.37781 0.62536,0.7483 0.97265,1.10937 2.83835,2.9451 6.31672,4.41797 10.43555,4.41797 2.34752,0 4.58855,-0.54443 6.72266,-1.63281 2.45423,-1.23776 4.37649,-2.96612 5.76367,-5.18555 1.4085,-2.2622 2.11133,-4.67537 2.11133,-7.23633 0,-4.14017 -1.4194,-7.60666 -4.25781,-10.40234 -2.88101,-2.85971 -6.28419,-4.29101 -10.21094,-4.29101 -3.49996,0.0213 -6.51902,1.06856 -9.0586,3.13867 -0.96622,0.77633 -1.80031,1.61014 -2.51367,2.49609 -0.97648,-1.99777 -2.30349,-3.83084 -3.99023,-5.49219 -4.0659,-4.03584 -8.86844,-6.05273 -14.41016,-6.05273 z m 72.02539,6.15625 -5.36719,7.69531 c -1.37941,2.15531 -2.18674,3.46919 -2.42382,3.94336 -0.21553,0.47417 -0.32422,1.05639 -0.32422,1.74609 0,0.81902 0.14168,1.55068 0.42187,2.19727 0.30174,0.62504 1.01205,1.75649 2.13282,3.39453 l 6.36914,9.2793 8.08203,0 -10.79883,-15 9.76367,-13.25586 -7.85547,0 z m 10.7793,0 0,28.25586 6.49805,0 0,-28.25586 -6.49805,0 z"
       style="font-style:normal;font-variant:normal;font-weight:normal;font-stretch:normal;font-size:medium;line-height:125%;font-family:HoratioDMed;-inkscape-font-specification:HoratioDMed;letter-spacing:0px;word-spacing:0px;opacity:0.45899999;fill:#000000;fill-opacity:1;stroke:none;stroke-width:1px;stroke-linecap:butt;stroke-linejoin:miter;stroke-opacity:1;filter:url(#filter5265)" />
    <path
       id="path5134"
       style="font-style:normal;font-variant:normal;font-weight:normal;font-stretch:normal;font-size:medium;line-height:125%;font-family:HoratioDMed;-inkscape-font-specification:HoratioDMed;letter-spacing:0px;word-spacing:0px;fill:url(#linearGradient5152);fill-opacity:1;stroke:none;stroke-width:1px;stroke-linecap:butt;stroke-linejoin:miter;stroke-opacity:1"
       d="m 449.60651,435.69894 c 5.54172,0 10.34561,2.01794 14.41151,6.05378 4.00578,3.94548 6.00863,8.83966 6.00863,14.68258 0,3.61422 -0.99391,7.01755 -2.9817,10.21013 -1.95769,3.13224 -4.66833,5.57187 -8.13192,7.31868 -3.01183,1.53601 -6.17426,2.30404 -9.48726,2.30404 -5.8128,0 -10.72208,-2.07815 -14.72778,-6.23449 -3.79489,-3.94547 -5.69236,-8.5987 -5.69236,-13.95973 0,-6.44534 2.60523,-11.76118 7.81568,-15.94759 3.58406,-2.9215 7.84579,-4.39727 12.7852,-4.4274 z" />
    <path
       style="font-style:normal;font-variant:normal;font-weight:normal;font-stretch:normal;font-size:medium;line-height:125%;font-family:HoratioDMed;-inkscape-font-specification:HoratioDMed;letter-spacing:0px;word-spacing:0px;fill:url(#linearGradient5154);fill-opacity:1;stroke:none;stroke-width:1px;stroke-linecap:butt;stroke-linejoin:miter;stroke-opacity:1"
       d="m 496.10547,425.98242 0,44.12891 6.49805,0 0,-44.12891 -6.49805,0 z m 9.62305,0 0,44.12891 6.5,0 0,-44.12891 -6.5,0 z m -90.2461,5.94727 0,25.89648 c -0.0431,4.31063 1.04565,7.5012 3.26563,9.57031 1.16386,1.03455 2.4137,1.74486 3.75,2.13282 1.33629,0.38795 3.14701,0.58203 5.43164,0.58203 l 0,-6.27149 c -2.28463,-0.0215 -3.84889,-0.44269 -4.68946,-1.26172 -0.84057,-0.84056 -1.25976,-2.36987 -1.25976,-4.58984 l 0,-9.89258 5.94922,0 0,-6.24023 -5.94922,0 0,-9.92578 -6.49805,0 z m 126.73242,0 0,25.89648 c -0.0431,4.31063 1.04566,7.5012 3.26563,9.57031 1.16387,1.03455 2.4137,1.74486 3.75,2.13282 1.33629,0.38795 3.14701,0.58203 5.43164,0.58203 l 0,-6.27149 c -2.28463,-0.0215 -3.84693,-0.44269 -4.6875,-1.26172 -0.84057,-0.84056 -1.26172,-2.36987 -1.26172,-4.58984 l 0,-9.89258 5.94922,0 0,-6.24023 -5.94922,0 0,-9.92578 -6.49805,0 z m -9.80273,0.0996 0,6.5332 6.49805,0 0,-6.5332 -6.49805,0 z m -10.7793,9.82617 -5.36719,7.69531 c -1.37941,2.15531 -2.18674,3.46919 -2.42382,3.94336 -0.21553,0.47417 -0.32422,1.05639 -0.32422,1.74609 0,0.81902 0.14168,1.55068 0.42187,2.19727 0.30174,0.62504 1.01205,1.75649 2.13282,3.39453 l 6.36914,9.2793 8.08203,0 -10.79883,-15 9.76367,-13.25586 -7.85547,0 z m 10.7793,0 0,28.25586 6.49805,0 0,-28.25586 -6.49805,0 z"
       id="path5136" />
    <circle
       style="color:#000000;display:inline;overflow:visible;visibility:visible;opacity:1;fill:url(#radialGradient5156);fill-opacity:1;fill-rule:nonzero;stroke:none;stroke-width:1;stroke-linecap:butt;stroke-linejoin:round;stroke-miterlimit:4;stroke-dasharray:none;stroke-dashoffset:0;stroke-opacity:1;marker:none;enable-background:accumulate"
       id="circle5138"
       cx="449.51614"
       cy="455.98352"
       r="13.980863" />
    <path
       id="path5140"
       style="font-style:normal;font-variant:normal;font-weight:normal;font-stretch:normal;font-size:medium;line-height:125%;font-family:HoratioDMed;-inkscape-font-specification:HoratioDMed;letter-spacing:0px;word-spacing:0px;opacity:0.51300001;fill:#000000;fill-opacity:1;stroke:none;stroke-width:1px;stroke-linecap:butt;stroke-linejoin:miter;stroke-opacity:1;filter:url(#filter4544)"
       d="m 129.69221,717.78346 c 2.36844,0 4.42153,0.86243 6.15923,2.58728 1.71199,1.68623 2.56798,3.77791 2.56798,6.27508 0,1.54465 -0.42478,2.99917 -1.27433,4.36362 -0.83668,1.33867 -1.99516,2.38132 -3.47544,3.12788 -1.2872,0.65647 -2.63876,0.98471 -4.05468,0.98471 -2.48429,0 -4.58243,-0.88817 -6.2944,-2.66451 -1.62187,-1.68623 -2.43281,-3.67494 -2.43281,-5.96615 0,-2.75462 1.11343,-5.02652 3.34028,-6.81572 1.53177,-1.24859 3.35316,-1.87931 5.46417,-1.89219 z"
       transform="matrix(0.97068404,0,0,0.97068404,323.79689,-248.71709)" />
    <path
       d="m 449.55363,447.56841 c 2.299,0 4.29191,0.83715 5.97866,2.51143 1.66181,1.6368 2.4927,3.66716 2.4927,6.09112 0,1.49937 -0.41233,2.91125 -1.23697,4.2357 -0.81215,1.29942 -1.93667,2.31151 -3.37355,3.03618 -1.24947,0.63722 -2.56141,0.95584 -3.93582,0.95584 -2.41146,0 -4.44809,-0.86213 -6.10987,-2.5864 -1.57432,-1.63679 -2.36149,-3.5672 -2.36149,-5.79124 0,-2.67387 1.08079,-4.87916 3.24236,-6.61591 1.48686,-1.21199 3.25485,-1.82422 5.30398,-1.83672 z"
       style="font-style:normal;font-variant:normal;font-weight:normal;font-stretch:normal;font-size:medium;line-height:125%;font-family:HoratioDMed;-inkscape-font-specification:HoratioDMed;letter-spacing:0px;word-spacing:0px;fill:url(#radialGradient5158);fill-opacity:1;stroke:none;stroke-width:1px;stroke-linecap:butt;stroke-linejoin:miter;stroke-opacity:1"
       id="path5142" />
    <path
       style="color:#000000;font-style:normal;font-variant:normal;font-weight:normal;font-stretch:normal;font-size:medium;line-height:normal;font-family:sans-serif;text-indent:0;text-align:start;text-decoration:none;text-decoration-line:none;text-decoration-style:solid;text-decoration-color:#000000;letter-spacing:normal;word-spacing:normal;text-transform:none;direction:ltr;block-progression:tb;writing-mode:lr-tb;baseline-shift:baseline;text-anchor:start;white-space:normal;clip-rule:nonzero;display:inline;overflow:visible;visibility:visible;opacity:0.73999999;isolation:auto;mix-blend-mode:normal;color-interpolation:sRGB;color-interpolation-filters:linearRGB;solid-color:#000000;solid-opacity:1;fill:url(#radialGradient5160);fill-opacity:1;fill-rule:nonzero;stroke:none;stroke-width:3;stroke-linecap:butt;stroke-linejoin:round;stroke-miterlimit:4;stroke-dasharray:none;stroke-dashoffset:0;stroke-opacity:1;marker:none;color-rendering:auto;image-rendering:auto;shape-rendering:auto;text-rendering:auto;enable-background:accumulate"
       d="m 451.89728,418.35327 c -9.45917,-2.29395 -26.57586,6.78421 -27.63679,9.99227 9.1279,-6.42628 20.25329,-11.14069 31.54799,-8.32199 10.88694,2.00112 21.12027,8.91601 25.89417,19.06855 -2.09386,-9.78665 -12.17691,-15.30899 -20.63964,-18.93956 -2.96242,-0.98481 -6.04978,-1.59812 -9.16573,-1.79927 z m -0.2654,3.87508 c -10.02028,-2.23053 -24.72961,5.66176 -25.2339,10.75921 9.42085,-6.3402 17.12162,-11.89643 29.23453,-7.88661 8.47993,-0.19648 18.3243,11.55563 20.68162,12.81544 -2.55994,-10.29664 -15.38499,-14.16591 -24.68225,-15.68804 z m -0.3375,4.90516 c -7.09299,-1.38067 -22.79694,4.44389 -20.95977,9.99223 8.32067,-4.08973 16.59224,-10.0291 26.29975,-5.98195 4.72147,1.53421 19.83856,15.37219 13.04975,3.70673 -5.00319,-4.18056 -11.89909,-7.10365 -18.38973,-7.71701 z m 18.54756,43.92399 c -8.70319,12.75341 -29.95426,13.85273 -39.64868,1.70104 -6.07195,5.78303 10.85835,12.4825 16.56677,11.77078 8.41662,0.81653 25.26025,-3.63564 24.22253,-13.31316 l -1.14062,-0.1587 0,0 z m 12.67639,2.50714 c -7.3467,8.40001 -15.60472,17.73329 -27.58894,18.43036 -14.15365,2.04015 -29.83757,-4.42844 -36.78724,-17.27653 2.57043,10.54087 14.48636,16.07175 24.3279,18.13339 15.62172,2.90011 33.04754,-4.68692 40.04828,-19.28722 z m -7.08191,-0.0778 c -9.65973,15.64187 -34.33985,18.68836 -47.38916,5.66563 -2.42098,-6.2678 -8.62573,-1.54841 -1.66117,1.79706 14.16328,13.22383 41.10014,11.14283 50.64907,-6.51726 -0.10515,-0.70919 -0.91777,-1.21571 -1.59874,-0.94543 z"
       id="path5144" />
    <path
       d="m 479.58017,441.61031 c 3.92675,0 7.33068,1.42987 10.21169,4.28958 2.83841,2.79568 4.25758,6.26359 4.25758,10.40376 0,2.56096 -0.70426,4.97248 -2.11276,7.23468 -1.38718,2.21943 -3.30788,3.9481 -5.76211,5.18586 -2.13411,1.08838 -4.37494,1.63259 -6.72246,1.63259 -4.11883,0 -7.59744,-1.47253 -10.43579,-4.41763 -2.68898,-2.79567 -4.03348,-6.09285 -4.03348,-9.89156 0,-4.56703 1.846,-8.33372 5.53802,-11.30012 2.53958,-2.07011 5.55935,-3.11581 9.05931,-3.13716 z"
       style="font-style:normal;font-variant:normal;font-weight:normal;font-stretch:normal;font-size:medium;line-height:125%;font-family:HoratioDMed;-inkscape-font-specification:HoratioDMed;letter-spacing:0px;word-spacing:0px;fill:url(#linearGradient5162);fill-opacity:1;stroke:none;stroke-width:1px;stroke-linecap:butt;stroke-linejoin:miter;stroke-opacity:1"
       id="path5146" />
    <circle
       r="8.0155983"
       cy="455.98352"
       cx="479.51614"
       id="circle5148"
       style="color:#000000;display:inline;overflow:visible;visibility:visible;opacity:1;fill:url(#radialGradient5164);fill-opacity:1;fill-rule:nonzero;stroke:none;stroke-width:1;stroke-linecap:butt;stroke-linejoin:round;stroke-miterlimit:4;stroke-dasharray:none;stroke-dashoffset:0;stroke-opacity:1;marker:none;enable-background:accumulate" />
    <circle
       style="color:#000000;display:inline;overflow:visible;visibility:visible;opacity:1;fill:url(#radialGradient5166);fill-opacity:1;fill-rule:nonzero;stroke:none;stroke-width:1;stroke-linecap:butt;stroke-linejoin:round;stroke-miterlimit:4;stroke-dasharray:none;stroke-dashoffset:0;stroke-opacity:1;marker:none;enable-background:accumulate"
       id="circle5150"
       cx="479.51614"
       cy="455.98352"
       r="3.5655172" />
  </g>
</svg>
