<?xml version="1.0" encoding="UTF-8" standalone="no"?>
<!-- Created with Inkscape (http://www.inkscape.org/) -->

<svg
   xmlns:dc="http://purl.org/dc/elements/1.1/"
   xmlns:cc="http://creativecommons.org/ns#"
   xmlns:rdf="http://www.w3.org/1999/02/22-rdf-syntax-ns#"
   xmlns:svg="http://www.w3.org/2000/svg"
   xmlns="http://www.w3.org/2000/svg"
   xmlns:xlink="http://www.w3.org/1999/xlink"
   xmlns:sodipodi="http://sodipodi.sourceforge.net/DTD/sodipodi-0.dtd"
   xmlns:inkscape="http://www.inkscape.org/namespaces/inkscape"
   width="100"
   height="100.00002"
   id="svg2"
   version="1.1"
   inkscape:version="0.48.3.1 r9886"
   sodipodi:docname="gauge.svg">
  <defs
     id="defs4">
    <linearGradient
       id="linearGradient4044">
      <stop
         style="stop-color:#004369;stop-opacity:1;"
         offset="0"
         id="stop4046" />
      <stop
         style="stop-color:#002134;stop-opacity:1;"
         offset="1"
         id="stop4048" />
    </linearGradient>
    <linearGradient
       id="linearGradient3759">
      <stop
         id="stop3761"
         offset="0"
         style="stop-color:#000000;stop-opacity:0.25892857;" />
      <stop
         id="stop3763"
         offset="1"
         style="stop-color:#ffffff;stop-opacity:0.76339287;" />
    </linearGradient>
    <radialGradient
       r="3"
       fy="524.5108"
       fx="219.54053"
       cy="524.5108"
       cx="219.54053"
       gradientTransform="matrix(0.99500945,2.3880129,-2.1621632,2.0270289,1135.1735,-1064.1291)"
       gradientUnits="userSpaceOnUse"
       id="radialGradient3971"
       xlink:href="#linearGradient3769"
       inkscape:collect="always" />
    <linearGradient
       y2="529.86218"
       x2="223.07692"
       y1="523.51605"
       x1="218.84615"
       gradientUnits="userSpaceOnUse"
       id="linearGradient3969"
       xlink:href="#linearGradient3785"
       inkscape:collect="always" />
    <linearGradient
       y2="531.45221"
       x2="220.81999"
       y1="522.45221"
       x1="220.81999"
       gradientTransform="matrix(8.3333335,0,0,5.5555555,-1616.6667,-2399.6564)"
       gradientUnits="userSpaceOnUse"
       id="linearGradient3967"
       xlink:href="#linearGradient3759-6"
       inkscape:collect="always" />
    <radialGradient
       r="3"
       fy="524.5108"
       fx="219.54053"
       cy="524.5108"
       cx="219.54053"
       gradientTransform="matrix(0.99500945,2.3880129,-2.1621632,2.0270289,1135.1735,-1064.1291)"
       gradientUnits="userSpaceOnUse"
       id="radialGradient3955"
       xlink:href="#linearGradient3769"
       inkscape:collect="always" />
    <linearGradient
       y2="529.86218"
       x2="223.07692"
       y1="523.51605"
       x1="218.84615"
       gradientUnits="userSpaceOnUse"
       id="linearGradient3953"
       xlink:href="#linearGradient3785"
       inkscape:collect="always" />
    <linearGradient
       y2="531.45221"
       x2="220.81999"
       y1="522.45221"
       x1="220.81999"
       gradientTransform="matrix(16.666667,0,0,11.111111,-3633.3334,-4851.6749)"
       gradientUnits="userSpaceOnUse"
       id="linearGradient3951"
       xlink:href="#linearGradient3759-6"
       inkscape:collect="always" />
    <radialGradient
       r="3"
       fy="524.5108"
       fx="219.54053"
       cy="524.5108"
       cx="219.54053"
       gradientTransform="matrix(0.99500945,2.3880129,-2.1621632,2.0270289,1135.1735,-1064.1291)"
       gradientUnits="userSpaceOnUse"
       id="radialGradient3939"
       xlink:href="#linearGradient3769"
       inkscape:collect="always" />
    <linearGradient
       y2="529.86218"
       x2="223.07692"
       y1="523.51605"
       x1="218.84615"
       gradientUnits="userSpaceOnUse"
       id="linearGradient3937"
       xlink:href="#linearGradient3785"
       inkscape:collect="always" />
    <linearGradient
       y2="531.45221"
       x2="220.81999"
       y1="522.45221"
       x1="220.81999"
       gradientTransform="matrix(33.333334,0,0,22.222222,-6886.6668,-11255.712)"
       gradientUnits="userSpaceOnUse"
       id="linearGradient3935"
       xlink:href="#linearGradient3759-6"
       inkscape:collect="always" />
    <filter
       color-interpolation-filters="sRGB"
       id="filter3902"
       inkscape:collect="always">
      <feGaussianBlur
         id="feGaussianBlur3904"
         stdDeviation="2.6536063"
         inkscape:collect="always" />
    </filter>
    <linearGradient
       y2="531.45221"
       x2="220.81999"
       y1="522.45221"
       x1="220.81999"
       gradientTransform="matrix(16.666667,0,0,11.111111,-3433.3334,-5351.675)"
       gradientUnits="userSpaceOnUse"
       id="linearGradient3860"
       xlink:href="#linearGradient3759-6"
       inkscape:collect="always" />
    <linearGradient
       gradientUnits="userSpaceOnUse"
       y2="529.86218"
       x2="223.07692"
       y1="523.51605"
       x1="218.84615"
       id="linearGradient3783"
       xlink:href="#linearGradient3785"
       inkscape:collect="always" />
    <radialGradient
       gradientUnits="userSpaceOnUse"
       gradientTransform="matrix(0.99500945,2.3880129,-2.1621632,2.0270289,1135.1735,-1064.1291)"
       r="3"
       fy="524.5108"
       fx="219.54053"
       cy="524.5108"
       cx="219.54053"
       id="radialGradient3777"
       xlink:href="#linearGradient3769"
       inkscape:collect="always" />
    <linearGradient
       id="linearGradient3759-6">
      <stop
         id="stop3761-2"
         offset="0"
         style="stop-color:#000000;stop-opacity:0.25892857;" />
      <stop
         id="stop3763-2"
         offset="1"
         style="stop-color:#ffffff;stop-opacity:0.76339287;" />
    </linearGradient>
    <linearGradient
       id="linearGradient3769">
      <stop
         id="stop3771"
         offset="0"
         style="stop-color:#f6f6f6;stop-opacity:1;" />
      <stop
         id="stop3773"
         offset="1"
         style="stop-color:#d0d0d0;stop-opacity:1;" />
    </linearGradient>
    <linearGradient
       id="linearGradient3785">
      <stop
         style="stop-color:#ffffff;stop-opacity:1;"
         offset="0"
         id="stop3787" />
      <stop
         id="stop3853"
         offset="0.125"
         style="stop-color:#c0c0c0;stop-opacity:1;" />
      <stop
         id="stop3793"
         offset="0.25"
         style="stop-color:#f9f9f9;stop-opacity:1;" />
      <stop
         id="stop3791"
         offset="0.5"
         style="stop-color:#b6b6b6;stop-opacity:1;" />
      <stop
         style="stop-color:#efefef;stop-opacity:1;"
         offset="0.75"
         id="stop3795" />
      <stop
         id="stop3855"
         offset="0.875"
         style="stop-color:#d9d9d9;stop-opacity:1;" />
      <stop
         style="stop-color:#f1f1f1;stop-opacity:1;"
         offset="1"
         id="stop3789" />
    </linearGradient>
    <linearGradient
       inkscape:collect="always"
       xlink:href="#linearGradient3759-6"
       id="linearGradient3150"
       gradientUnits="userSpaceOnUse"
       gradientTransform="matrix(16.666667,0,0,11.111111,-3160.279,-5306.6749)"
       x1="220.81999"
       y1="522.45221"
       x2="220.81999"
       y2="531.45221" />
    <filter
       inkscape:collect="always"
       id="filter3983"
       x="-0.021446632"
       width="1.0428933"
       y="-0.37784627"
       height="1.7556926"
       color-interpolation-filters="sRGB">
      <feGaussianBlur
         inkscape:collect="always"
         stdDeviation="0.87573746"
         id="feGaussianBlur3985" />
    </filter>
    <filter
       inkscape:collect="always"
       id="filter3987"
       x="-0.021446632"
       width="1.0428933"
       y="-0.14432755"
       height="1.288655"
       color-interpolation-filters="sRGB">
      <feGaussianBlur
         inkscape:collect="always"
         stdDeviation="0.87573746"
         id="feGaussianBlur3989" />
    </filter>
    <filter
       inkscape:collect="always"
       id="filter3991"
       color-interpolation-filters="sRGB">
      <feGaussianBlur
         inkscape:collect="always"
         stdDeviation="0.87573746"
         id="feGaussianBlur3993" />
    </filter>
    <filter
       inkscape:collect="always"
       id="filter3995"
       color-interpolation-filters="sRGB">
      <feGaussianBlur
         inkscape:collect="always"
         stdDeviation="0.87573746"
         id="feGaussianBlur3997" />
    </filter>
    <filter
       inkscape:collect="always"
       id="filter3999"
       color-interpolation-filters="sRGB">
      <feGaussianBlur
         inkscape:collect="always"
         stdDeviation="0.87573746"
         id="feGaussianBlur4001" />
    </filter>
    <radialGradient
       inkscape:collect="always"
       xlink:href="#linearGradient4044"
       id="radialGradient4050"
       cx="221.05582"
       cy="526.89154"
       fx="221.05582"
       fy="526.89154"
       r="3"
       gradientTransform="matrix(0,-1.5495625,0.99999997,4.039008e-7,-305.83571,869.4458)"
       gradientUnits="userSpaceOnUse" />
  </defs>
  <sodipodi:namedview
     id="base"
     pagecolor="#ffffff"
     bordercolor="#666666"
     borderopacity="1.0"
     inkscape:pageopacity="0.0"
     inkscape:pageshadow="2"
     inkscape:zoom="2.8284271"
     inkscape:cx="121.49736"
     inkscape:cy="39.7545"
     inkscape:document-units="px"
     inkscape:current-layer="g4013"
     showgrid="false"
     inkscape:window-width="1920"
     inkscape:window-height="1145"
     inkscape:window-x="-4"
     inkscape:window-y="34"
     inkscape:window-maximized="1"
     fit-margin-top="0"
     fit-margin-left="0"
     fit-margin-right="0"
     fit-margin-bottom="0" />
  <metadata
     id="metadata7">
    <rdf:RDF>
      <cc:Work
         rdf:about="">
        <dc:format>image/svg+xml</dc:format>
        <dc:type
           rdf:resource="http://purl.org/dc/dcmitype/StillImage" />
        <dc:title />
      </cc:Work>
    </rdf:RDF>
  </metadata>
  <g
     inkscape:label="Ebene 1"
     inkscape:groupmode="layer"
     id="layer1"
     transform="translate(-473.05444,-497.36216)">
    <path
       style="fill:url(#linearGradient3150);fill-opacity:1;stroke:none"
       d="m 523.05444,497.36216 c -27.61424,0 -50,22.38576 -50,50.00002 0,27.6142 22.38576,50 50,50 27.61424,0 50,-22.3858 50,-50 0,-27.61426 -22.38576,-50.00002 -50,-50.00002 z m 0,1 c 27.06185,0 49,21.93815 49,49.00002 0,27.0618 -21.93815,49 -49,49 -27.06185,0 -49,-21.9382 -49,-49 0,-27.06187 21.93815,-49.00002 49,-49.00002 z"
       id="path3941-5"
       inkscape:connector-curvature="0" />
    <path
       transform="matrix(16.333271,0,0,10.888847,-3086.5985,-5189.5595)"
       d="m 224,526.86218 c 0,2.48528 -1.34315,4.5 -3,4.5 -1.65685,0 -3,-2.01472 -3,-4.5 0,-2.48528 1.34315,-4.5 3,-4.5 1.65685,0 3,2.01472 3,4.5 z"
       sodipodi:ry="4.5"
       sodipodi:rx="3"
       sodipodi:cy="526.86218"
       sodipodi:cx="221"
       id="path3943-7"
       style="fill:url(#radialGradient4050);fill-opacity:1;stroke:none"
       sodipodi:type="arc" />
    <g
       id="g4013"
       transform="matrix(0.90746339,-0.42013117,0.42013117,0.90746339,-181.56686,270.40712)"
       style="opacity:0.80895517">
      <path
         inkscape:connector-curvature="0"
         id="path3159"
         d="m 481.03125,522.15625 c -4.42951,7.36638 -6.96875,15.99709 -6.96875,25.21875 0,9.22261 2.53839,17.85187 6.96875,25.21875 L 523.0625,547.375 481.03125,522.15625 z m 42.03125,25.21875 42.03125,25.21875 c 4.42995,-7.36664 6.96875,-15.9966 6.96875,-25.21875 0,-9.22118 -2.53967,-17.85262 -6.96875,-25.21875 L 523.0625,547.375 z"
         style="opacity:0.02985074;fill:#00ffff;fill-opacity:1;stroke:none" />
      <path
         inkscape:connector-curvature="0"
         id="rect3152"
         d="m 477.5625,529.1875 c -2.24606,5.62006 -3.5,11.76568 -3.5,18.1875 0,6.43213 1.24709,12.56007 3.5,18.1875 l 45.5,-18.1875 -45.5,-18.1875 z m 45.5,18.1875 45.5,18.1875 c 2.25291,-5.62743 3.5,-11.75537 3.5,-18.1875 0,-6.42182 -1.25394,-12.56744 -3.5,-18.1875 l -45.5,18.1875 z"
         style="opacity:0.02985074;fill:#00ffff;fill-opacity:1;stroke:none" />
      <path
         inkscape:connector-curvature="0"
         id="path3155"
         d="m 476.09375,535.15625 c -1.33455,3.86486 -2.03125,7.97743 -2.03125,12.21875 0,4.25293 0.72092,8.34459 2.0625,12.21875 L 523.0625,547.375 476.09375,535.15625 z m 46.96875,12.21875 46.90625,12.19166 c 1.33608,-3.86689 2.09375,-7.9478 2.09375,-12.19166 0,-4.23226 -0.73344,-8.33407 -2.0625,-12.19166 L 523.0625,547.375 z"
         style="opacity:0.02985074;fill:#00ffff;fill-opacity:1;stroke:none" />
      <path
         inkscape:connector-curvature="0"
         id="path3161"
         d="m 474.59375,540.09375 c -0.3532,2.37338 -0.53125,4.80957 -0.53125,7.28125 0,2.48235 0.17505,4.89811 0.53125,7.28125 l 48.46875,-7.28125 -48.46875,-7.28125 z m 48.46875,7.28125 48.46875,7.28125 c 0.3562,-2.38314 0.53125,-4.7989 0.53125,-7.28125 0,-2.47168 -0.17805,-4.90787 -0.53125,-7.28125 L 523.0625,547.375 z"
         style="opacity:0.02985074;fill:#00ffff;fill-opacity:1;stroke:none" />
      <path
         style="opacity:0.02985074;fill:#00ffff;fill-opacity:1;stroke:none"
         d="m 474.59375,544.59375 c -0.3532,0.90657 -0.53125,1.83713 -0.53125,2.78125 0,0.94819 0.17505,1.87095 0.53125,2.78125 l 48.46875,-2.78125 -48.46875,-2.78125 z m 48.46875,2.78125 48.46875,2.78125 c 0.3562,-0.9103 0.53125,-1.83306 0.53125,-2.78125 0,-0.94412 -0.17805,-1.87468 -0.53125,-2.78125 L 523.0625,547.375 z"
         id="path3941"
         inkscape:connector-curvature="0" />
    </g>
    <g
       id="g4020"
       transform="matrix(0.45325465,0.89138108,-0.89138108,0.45325465,773.90171,-166.97328)"
       style="fill:#000000">
      <path
         style="opacity:0.0268657;fill:#000000;fill-opacity:1;stroke:none"
         d="m 481.03125,522.15625 c -4.42951,7.36638 -6.96875,15.99709 -6.96875,25.21875 0,9.22261 2.53839,17.85187 6.96875,25.21875 L 523.0625,547.375 481.03125,522.15625 z m 42.03125,25.21875 42.03125,25.21875 c 4.42995,-7.36664 6.96875,-15.9966 6.96875,-25.21875 0,-9.22118 -2.53967,-17.85262 -6.96875,-25.21875 L 523.0625,547.375 z"
         id="path4022"
         inkscape:connector-curvature="0" />
      <path
         style="opacity:0.0268657;fill:#000000;fill-opacity:1;stroke:none"
         d="m 477.5625,529.1875 c -2.24606,5.62006 -3.5,11.76568 -3.5,18.1875 0,6.43213 1.24709,12.56007 3.5,18.1875 l 45.5,-18.1875 -45.5,-18.1875 z m 45.5,18.1875 45.5,18.1875 c 2.25291,-5.62743 3.5,-11.75537 3.5,-18.1875 0,-6.42182 -1.25394,-12.56744 -3.5,-18.1875 l -45.5,18.1875 z"
         id="path4024"
         inkscape:connector-curvature="0" />
      <path
         style="opacity:0.0268657;fill:#000000;fill-opacity:1;stroke:none"
         d="m 476.09375,535.15625 c -1.33455,3.86486 -2.03125,7.97743 -2.03125,12.21875 0,4.25293 0.72092,8.34459 2.0625,12.21875 L 523.0625,547.375 476.09375,535.15625 z m 46.96875,12.21875 46.90625,12.19166 c 1.33608,-3.86689 2.09375,-7.9478 2.09375,-12.19166 0,-4.23226 -0.73344,-8.33407 -2.0625,-12.19166 L 523.0625,547.375 z"
         id="path4026"
         inkscape:connector-curvature="0" />
      <path
         style="opacity:0.0268657;fill:#000000;fill-opacity:1;stroke:none"
         d="m 474.59375,540.09375 c -0.3532,2.37338 -0.53125,4.80957 -0.53125,7.28125 0,2.48235 0.17505,4.89811 0.53125,7.28125 l 48.46875,-7.28125 -48.46875,-7.28125 z m 48.46875,7.28125 48.46875,7.28125 c 0.3562,-2.38314 0.53125,-4.7989 0.53125,-7.28125 0,-2.47168 -0.17805,-4.90787 -0.53125,-7.28125 L 523.0625,547.375 z"
         id="path4028"
         inkscape:connector-curvature="0" />
      <path
         inkscape:connector-curvature="0"
         id="path4030"
         d="m 474.59375,544.59375 c -0.3532,0.90657 -0.53125,1.83713 -0.53125,2.78125 0,0.94819 0.17505,1.87095 0.53125,2.78125 l 48.46875,-2.78125 -48.46875,-2.78125 z m 48.46875,2.78125 48.46875,2.78125 c 0.3562,-0.9103 0.53125,-1.83306 0.53125,-2.78125 0,-0.94412 -0.17805,-1.87468 -0.53125,-2.78125 L 523.0625,547.375 z"
         style="opacity:0.0268657;fill:#000000;fill-opacity:1;stroke:none" />
    </g>
    <g
       style="fill:#000000"
       transform="matrix(-0.17311804,0.98490109,-0.98490109,-0.17311804,1152.7244,126.97067)"
       id="g4032">
      <path
         inkscape:connector-curvature="0"
         id="path4034"
         d="m 481.03125,522.15625 c -4.42951,7.36638 -6.96875,15.99709 -6.96875,25.21875 0,9.22261 2.53839,17.85187 6.96875,25.21875 L 523.0625,547.375 481.03125,522.15625 z m 42.03125,25.21875 42.03125,25.21875 c 4.42995,-7.36664 6.96875,-15.9966 6.96875,-25.21875 0,-9.22118 -2.53967,-17.85262 -6.96875,-25.21875 L 523.0625,547.375 z"
         style="opacity:0.07164181;fill:#000000;fill-opacity:1;stroke:none" />
      <path
         inkscape:connector-curvature="0"
         id="path4036"
         d="m 477.5625,529.1875 c -2.24606,5.62006 -3.5,11.76568 -3.5,18.1875 0,6.43213 1.24709,12.56007 3.5,18.1875 l 45.5,-18.1875 -45.5,-18.1875 z m 45.5,18.1875 45.5,18.1875 c 2.25291,-5.62743 3.5,-11.75537 3.5,-18.1875 0,-6.42182 -1.25394,-12.56744 -3.5,-18.1875 l -45.5,18.1875 z"
         style="opacity:0.07164181;fill:#000000;fill-opacity:1;stroke:none" />
      <path
         inkscape:connector-curvature="0"
         id="path4038"
         d="m 476.09375,535.15625 c -1.33455,3.86486 -2.03125,7.97743 -2.03125,12.21875 0,4.25293 0.72092,8.34459 2.0625,12.21875 L 523.0625,547.375 476.09375,535.15625 z m 46.96875,12.21875 46.90625,12.19166 c 1.33608,-3.86689 2.09375,-7.9478 2.09375,-12.19166 0,-4.23226 -0.73344,-8.33407 -2.0625,-12.19166 L 523.0625,547.375 z"
         style="opacity:0.07164181;fill:#000000;fill-opacity:1;stroke:none" />
      <path
         inkscape:connector-curvature="0"
         id="path4040"
         d="m 474.59375,540.09375 c -0.3532,2.37338 -0.53125,4.80957 -0.53125,7.28125 0,2.48235 0.17505,4.89811 0.53125,7.28125 l 48.46875,-7.28125 -48.46875,-7.28125 z m 48.46875,7.28125 48.46875,7.28125 c 0.3562,-2.38314 0.53125,-4.7989 0.53125,-7.28125 0,-2.47168 -0.17805,-4.90787 -0.53125,-7.28125 L 523.0625,547.375 z"
         style="opacity:0.07164181;fill:#000000;fill-opacity:1;stroke:none" />
      <path
         style="opacity:0.07164181;fill:#000000;fill-opacity:1;stroke:none"
         d="m 474.59375,544.59375 c -0.3532,0.90657 -0.53125,1.83713 -0.53125,2.78125 0,0.94819 0.17505,1.87095 0.53125,2.78125 l 48.46875,-2.78125 -48.46875,-2.78125 z m 48.46875,2.78125 48.46875,2.78125 c 0.3562,-0.9103 0.53125,-1.83306 0.53125,-2.78125 0,-0.94412 -0.17805,-1.87468 -0.53125,-2.78125 L 523.0625,547.375 z"
         id="path4042"
         inkscape:connector-curvature="0" />
    </g>
  </g>
</svg>
