<?xml version="1.0" encoding="UTF-8" standalone="no"?>
<!-- Created with Inkscape (http://www.inkscape.org/) -->

<svg
   xmlns:dc="http://purl.org/dc/elements/1.1/"
   xmlns:cc="http://creativecommons.org/ns#"
   xmlns:rdf="http://www.w3.org/1999/02/22-rdf-syntax-ns#"
   xmlns:svg="http://www.w3.org/2000/svg"
   xmlns="http://www.w3.org/2000/svg"
   xmlns:sodipodi="http://sodipodi.sourceforge.net/DTD/sodipodi-0.dtd"
   xmlns:inkscape="http://www.inkscape.org/namespaces/inkscape"
   width="210mm"
   height="297mm"
   id="svg2"
   version="1.1"
   inkscape:version="0.48.4 r9939"
   sodipodi:docname="toolkit.svg"
   inkscape:export-filename="/home/markus/Junger/Web&amp;Grafik/junger_toolkit.png"
   inkscape:export-xdpi="34.93"
   inkscape:export-ydpi="34.93">
  <defs
     id="defs4">
    <clipPath
       clipPathUnits="userSpaceOnUse"
       id="clipPath3268">
      <path
         d="m 0,0 1190.551,0 0,841.89 L 0,841.89 0,0 z"
         id="path3270" />
    </clipPath>
    <clipPath
       clipPathUnits="userSpaceOnUse"
       id="clipPath3352">
      <path
         d="m 0,0 1190.551,0 0,841.89 L 0,841.89 0,0 z"
         id="path3354" />
    </clipPath>
  </defs>
  <sodipodi:namedview
     id="base"
     pagecolor="#ffffff"
     bordercolor="#666666"
     borderopacity="1.0"
     inkscape:pageopacity="0.0"
     inkscape:pageshadow="2"
     inkscape:zoom="0.70710678"
     inkscape:cx="-144.7347"
     inkscape:cy="483.18149"
     inkscape:document-units="px"
     inkscape:current-layer="layer1"
     showgrid="false"
     inkscape:window-width="1920"
     inkscape:window-height="1146"
     inkscape:window-x="0"
     inkscape:window-y="24"
     inkscape:window-maximized="1" />
  <metadata
     id="metadata7">
    <rdf:RDF>
      <cc:Work
         rdf:about="">
        <dc:format>image/svg+xml</dc:format>
        <dc:type
           rdf:resource="http://purl.org/dc/dcmitype/StillImage" />
        <dc:title />
      </cc:Work>
    </rdf:RDF>
  </metadata>
  <g
     inkscape:label="Ebene 1"
     inkscape:groupmode="layer"
     id="layer1">
    <g
       style="stroke:none"
       transform="matrix(0.29707063,0,0,-0.29887931,-540.40191,47.30539)"
       id="g3014" />
    <path
       id="path4115"
       d="m 262.96746,510.44894 c -4.12137,0.19174 -8.03103,2.76248 -9.84375,6.46875 -3.25835,6.44412 -6.71431,17.38979 -10.15625,31.65625 -3.9826,0.77749 -8.04542,1.74859 -12.15625,2.96875 -2.81352,0.8351 -7.41059,10.85383 3.5625,9.84375 2.32686,-0.21419 4.15377,-0.43887 5.84375,-0.65625 -2.12926,9.95581 -4.23297,21.09286 -6.25,33.15625 -2.90664,0.3354 -5.76163,0.76424 -8.5625,1.21875 -5.12845,0.83222 -7.44198,8.76647 -0.65625,8.84375 2.5204,0.0287 5.02864,0.18597 7.5,0.46875 -2.54894,16.29517 -4.89552,33.98783 -7,52.53125 -3.37335,-0.46482 -6.82852,-0.69385 -10.4375,-0.59375 -5.18782,0.14389 -6.91505,8.14723 -1.84375,9.25 4.52706,0.98443 8.02197,2.01397 10.96875,3.09375 -0.34777,3.31048 -0.70284,6.61783 -1.03125,9.96875 -2.11536,21.58402 10.24355,13.84729 12.25,3 0.4052,-2.1906 0.83323,-4.39199 1.25,-6.59375 2.65055,1.62244 5.56104,3.37737 9.40625,5.40625 1.80805,0.95311 3.98506,1.16703 5.9375,0.5625 1.95244,-0.60454 3.64064,-2.00444 4.59375,-3.8125 0.95312,-1.80805 1.16703,-4.01631 0.5625,-5.96875 -0.60453,-1.95243 -2.00445,-3.64064 -3.8125,-4.59375 -4.68369,-2.4713 -9.24771,-4.56236 -13.84375,-6.21875 3.51721,-17.72453 7.27891,-35.3985 11.09375,-51.90625 2.25159,0.74728 6.48041,1.55011 8.71875,2.4375 1.89858,0.75183 4.09463,0.71711 5.96875,-0.0937 1.87413,-0.81088 3.40442,-2.38267 4.15625,-4.28125 0.75183,-1.89857 0.71712,-4.09463 -0.0937,-5.96875 -0.81087,-1.87412 -2.45096,-3.3753 -4.28125,-4.15625 -2.87043,-1.22476 -7.87963,-2.04816 -10.96875,-2.5625 3.0016,-12.3877 5.96073,-23.78542 8.75,-33.6875 4.10091,0.3499 9.149,0.89308 15.71875,1.6875 2.02899,0.24552 4.14171,-0.33262 5.75,-1.59375 1.6083,-1.26113 2.69206,-3.18976 2.9375,-5.21875 0.24545,-2.029 -0.33255,-4.14175 -1.59375,-5.75 -1.26119,-1.60824 -3.18975,-2.69214 -5.21875,-2.9375 -3.94331,-0.333 -8.45359,-0.50646 -13.375,-0.40625 2.60594,-8.24617 4.993,-14.74876 6.96875,-18.65625 1.87112,-3.58747 1.64536,-8.15172 -0.53125,-11.5625 -2.17662,-3.41078 -6.23941,-5.52968 -10.28125,-5.34375 z m 46.3125,35.09375 c -7.35035,0 -13.3125,5.9309 -13.3125,13.28125 0,7.35035 5.96215,13.3125 13.3125,13.3125 7.35035,0 13.3125,-5.96215 13.3125,-13.3125 0,-7.35035 -5.96215,-13.28125 -13.3125,-13.28125 z m -19.125,54.9375 c -6.75862,0 -12.21875,5.49138 -12.21875,12.25 0,6.75862 5.46013,12.25 12.21875,12.25 6.75862,0 12.25,-5.49138 12.25,-12.25 0,-6.75862 -5.49138,-12.25 -12.25,-12.25 z m -15.99908,75.2598 c -6.36413,0 -11.53125,5.16712 -11.53125,11.53125 0,6.36413 5.16712,11.53125 11.53125,11.53125 6.36413,0 11.53125,-5.16712 11.53125,-11.53125 0,-6.36413 -5.16712,-11.53125 -11.53125,-11.53125 z"
       style="font-size:medium;font-style:normal;font-variant:normal;font-weight:normal;font-stretch:normal;text-indent:0;text-align:start;text-decoration:none;line-height:normal;letter-spacing:normal;word-spacing:normal;text-transform:none;direction:ltr;block-progression:tb;writing-mode:lr-tb;text-anchor:start;baseline-shift:baseline;color:#000000;fill:#00365f;fill-opacity:1;fill-rule:nonzero;stroke:#005484;stroke-width:0;stroke-miterlimit:4;stroke-dasharray:none;marker:none;visibility:visible;display:inline;overflow:visible;enable-background:accumulate;font-family:Sans;-inkscape-font-specification:Sans"
       inkscape:connector-curvature="0"
       sodipodi:nodetypes="cccssccssccsscssccssscccccscscccssscccsccsssssssssssssss"
       inkscape:export-filename="/home/markus/Deutsche Soft/toolkit/images/toolkit.png"
       inkscape:export-xdpi="63.25547"
       inkscape:export-ydpi="63.25547" />
    <text
       xml:space="preserve"
       style="font-size:83.72582245000000967px;font-style:normal;font-variant:normal;font-weight:normal;font-stretch:normal;text-align:start;line-height:125%;letter-spacing:0px;word-spacing:0px;writing-mode:lr-tb;text-anchor:start;fill:#b3b3b3;fill-opacity:1;stroke:none;font-family:Trebuchet MS;-inkscape-font-specification:Trebuchet MS"
       x="296.35495"
       y="697.93109"
       id="text4117"
       sodipodi:linespacing="125%"
       inkscape:export-filename="/home/markus/Deutsche Soft/toolkit/images/toolkit.png"
       inkscape:export-xdpi="63.25547"
       inkscape:export-ydpi="63.25547"><tspan
         sodipodi:role="line"
         id="tspan4119"
         x="296.35495"
         y="697.93109"
         style="font-size:83.72582245000000967px;font-style:normal;font-variant:normal;font-weight:normal;font-stretch:normal;text-align:start;line-height:125%;writing-mode:lr-tb;text-anchor:start;fill:#b3b3b3;font-family:Trebuchet MS;-inkscape-font-specification:Trebuchet MS;fill-opacity:1"><tspan
           style="font-size:83.72582245000000967px;font-style:normal;font-variant:normal;font-weight:normal;font-stretch:normal;text-align:start;line-height:125%;writing-mode:lr-tb;text-anchor:start;fill:#b3b3b3;font-family:Trebuchet MS;-inkscape-font-specification:Trebuchet MS;fill-opacity:1"
           id="tspan4121"
           dx="0 -2.700562 0 -1.350281 -1.350281 0 -1.350281">toolkit</tspan></tspan></text>
  </g>
</svg>
